<svg xmlns="http://www.w3.org/2000/svg" xmlns:xlink="http://www.w3.org/1999/xlink" width="496" height="429" viewBox="0 0 496 429">
  <defs>
    <radialGradient id="radial-gradient" cx="0.325" cy="1.075" r="0.909" gradientTransform="matrix(0.047, -0.999, 0.807, 0.038, -0.559, 1.358)" gradientUnits="objectBoundingBox">
      <stop offset="0" stop-color="#ffe600"/>
      <stop offset="0.565" stop-color="#f80b59"/>
      <stop offset="1" stop-color="#545ad4"/>
    </radialGradient>
  </defs>
  <g id="Group_6" data-name="Group 6" transform="translate(-196.879 -294)">
    <path id="Polygon_3" data-name="Polygon 3" d="M186.532,106.33c27.337-47.288,95.6-47.288,122.936,0L434.414,322.466C461.777,369.8,427.619,429,372.946,429H123.054c-54.673,0-88.831-59.2-61.468-106.534Z" transform="translate(196.879 294)" fill="url(#radial-gradient)"/>
    <g id="instagram-brands" transform="translate(342.317 483.539)">
      <path id="instagram-brands-2" data-name="instagram-brands" d="M102.51,81.784a52.579,52.579,0,1,0,52.58,52.579A52.5,52.5,0,0,0,102.51,81.784Zm0,86.762a34.183,34.183,0,1,1,34.184-34.183A34.245,34.245,0,0,1,102.51,168.545ZM169.5,79.633a12.264,12.264,0,1,1-12.264-12.264A12.235,12.235,0,0,1,169.5,79.633ZM204.329,92.08c-.778-16.428-4.53-30.98-16.566-42.969-11.989-11.989-26.542-15.742-42.97-16.565-16.932-.961-67.681-.961-84.613,0-16.383.778-30.935,4.53-42.97,16.519S1.469,75.606.646,92.034c-.961,16.931-.961,67.68,0,84.611.778,16.428,4.53,30.98,16.566,42.969s26.542,15.742,42.97,16.565c16.932.961,67.681.961,84.613,0,16.428-.778,30.98-4.53,42.97-16.565,11.989-11.989,15.742-26.541,16.566-42.969.961-16.931.961-67.634,0-84.565ZM182.455,194.812a34.608,34.608,0,0,1-19.494,19.494c-13.5,5.354-45.532,4.118-60.451,4.118s-47,1.19-60.451-4.118a34.608,34.608,0,0,1-19.494-19.494c-5.354-13.5-4.119-45.532-4.119-60.449s-1.19-47,4.119-60.449A34.608,34.608,0,0,1,42.06,54.419c13.5-5.354,45.532-4.118,60.451-4.118s47-1.19,60.451,4.118a34.608,34.608,0,0,1,19.494,19.494c5.354,13.5,4.119,45.532,4.119,60.449S187.809,181.358,182.455,194.812Z" transform="translate(0.075 -31.825)" fill="#fff"/>
    </g>
  </g>
</svg>
