<svg xmlns="http://www.w3.org/2000/svg" viewBox="0 0 767.48 866.4"><defs><style>.cls-1{fill:#fff;fill-rule:evenodd;}</style></defs><g id="Layer_2" data-name="Layer 2"><g id="Layer_1-2" data-name="Layer 1"><path class="cls-1" d="M767.48,225.58A16.5,16.5,0,0,0,751,209H572.91C568.55,92.73,485.53,0,383.76,0S199,92.73,194.61,209H16.24A16.54,16.54,0,0,0,.07,225.58c0,.43,0,.87.06,1.3H0L25.42,787.41c0,1.56.07,3.13.2,4.72a9.61,9.61,0,0,0,.07,1.07l.06,1.2.07,0c3.86,39,32.17,70.43,70.63,71.9l.1.07H665.2l0,0c39.17-1.06,70.91-32.9,74.23-72.4l0,0,0-.53c0-.4.07-.8.07-1.23.06-1,.13-2,.13-3l27.75-562.76h0A8.43,8.43,0,0,0,767.48,225.58Zm-383.72-175c74.13,0,134.58,70.37,137.41,158.44H246.34C249.17,120.94,309.59,50.57,383.76,50.57ZM524.4,648.43c-5,41.59-30.25,74.93-69.31,91.6-21.76,9.32-50.94,14.34-74.06,12.74a238.87,238.87,0,0,1-101.15-26.18c-11.18-5.72-27.78-17.17-40.56-27.88-3.22-2.7-3.62-4.43-1.49-7.49,1.16-1.73,3.29-4.86,8-11.78,6.83-10,7.66-11.24,8.46-12.44,2.16-3.33,5.72-3.63,9.21-.87l.67.5,1.93,1.5c1.36,1.06,2.16,1.7,2.49,1.93,33.67,26.38,72.9,41.59,112.49,43.12,55.1-.77,94.73-25.52,101.82-63.55,7.81-41.86-25.06-78-89.34-98.18-20.13-6.29-70.93-26.66-80.32-32.14q-66-38.73-61.65-101.42c4.49-57.89,58.23-101.08,126.17-101.38a230,230,0,0,1,89.8,18.54c10.31,4.35,28.71,14.37,35.07,19.09,3.66,2.7,4.39,5.83,2.29,9.22-1.2,2-3.13,5.06-7.19,11.55l-.06.06c-5.36,8.52-5.52,8.79-6.76,10.78-2.13,3.26-4.65,3.56-8.48,1.13-31.18-20.92-65.71-31.47-103.71-32.24-47.28.93-82.71,29.08-85,67.45-.63,34.63,25.35,59.88,81.45,79.18C489,537.87,532.61,580.76,524.4,648.43Z"/></g></g></svg>