<svg xmlns="http://www.w3.org/2000/svg" width="504.151" height="436.304" viewBox="0 0 504.151 436.304">
  <g id="Group_7" data-name="Group 7" transform="translate(-707.925 -285.848)">
    <g id="Group_9" data-name="Group 9">
      <path id="Polygon_2" data-name="Polygon 2" d="M190.6,106.408c27.333-47.309,95.622-47.309,122.954,0L442.609,329.786C469.956,377.119,435.8,436.3,381.132,436.3H123.018c-54.665,0-88.824-59.185-61.477-106.518Z" transform="translate(707.925 285.848)" fill="#fd5e32"/>
      <g id="Layer_2" data-name="Layer 2" transform="translate(867.887 465.542)">
        <g id="Layer_1" data-name="Layer 1" transform="translate(0 0)">
          <path id="Path_2" data-name="Path 2" d="M184.225,54.078a3.958,3.958,0,0,0-3.956-3.975H137.521C136.474,22.23,116.546,0,92.117,0s-44.35,22.23-45.4,50.1H3.9A3.968,3.968,0,0,0,.017,54.078a2.258,2.258,0,0,0,.014.312H0L6.1,188.765c0,.374.017.75.048,1.132a2.3,2.3,0,0,0,.017.257l.014.288H6.2c.927,9.349,7.722,16.884,16.954,17.236l.024.017h136.5c9.4-.254,17.021-7.887,17.818-17.356h0v-.127c0-.1.017-.192.017-.295.014-.24.031-.479.031-.719L184.2,54.286h0a2.011,2.011,0,0,0,.024-.209ZM92.117,12.125c17.794,0,32.3,16.87,32.984,37.983H59.131c.679-21.115,15.182-37.985,32.986-37.985Zm33.759,143.322a26.887,26.887,0,0,1-16.637,21.959,41.647,41.647,0,0,1-17.777,3.054,57.4,57.4,0,0,1-24.28-6.276,60.365,60.365,0,0,1-9.736-6.684c-.773-.647-.869-1.062-.358-1.8.278-.415.79-1.165,1.92-2.824,1.639-2.4,1.839-2.695,2.031-2.982a1.384,1.384,0,0,1,2.211-.209l.161.12.463.36c.326.254.518.408.6.463a47.014,47.014,0,0,0,27,10.337c13.226-.185,22.739-6.118,24.441-15.235,1.875-10.035-6.015-18.7-21.445-23.537-4.832-1.508-17.026-6.391-19.28-7.7q-15.843-9.285-14.8-24.313c1.078-13.878,13.977-24.232,30.286-24.3a55.27,55.27,0,0,1,21.555,4.445,57.534,57.534,0,0,1,8.418,4.576,1.508,1.508,0,0,1,.55,2.21c-.288.479-.751,1.213-1.726,2.769l-.014.014c-1.287,2.042-1.325,2.107-1.623,2.584-.511.782-1.116.853-2.036.271a45.376,45.376,0,0,0-24.894-7.729c-11.349.223-19.854,6.971-20.4,16.17-.151,8.3,6.085,14.355,19.551,18.982C117.379,128.943,127.847,139.225,125.876,155.447Z" transform="translate(0 0)" fill="#fff" fill-rule="evenodd"/>
        </g>
      </g>
    </g>
  </g>
</svg>
