<svg xmlns="http://www.w3.org/2000/svg" width="519.225" height="449.35" viewBox="0 0 519.225 449.35">
  <g id="Group_8" data-name="Group 8" transform="translate(-1197 -272.802)">
    <path id="Polygon_1" data-name="Polygon 1" d="M198.135,106.408c27.333-47.309,95.622-47.309,122.954,0L457.684,342.832c27.347,47.333-6.812,106.518-61.477,106.518H123.018c-54.665,0-88.824-59.185-61.477-106.518Z" transform="translate(1197 272.802)" fill="#08d94c"/>
    <g id="whatsapp-brands" transform="translate(1354.55 470.539)">
      <path id="whatsapp-brands-2" data-name="whatsapp-brands" d="M174.254,61.782A101.593,101.593,0,0,0,14.411,184.34L0,236.951l53.845-14.136a101.251,101.251,0,0,0,48.538,12.352h.046c55.95,0,102.521-45.565,102.521-101.56C204.951,106.478,193.422,81,174.254,61.782ZM102.43,218.057a84.264,84.264,0,0,1-43-11.757l-3.065-1.83-31.932,8.372,8.509-31.154-2.013-3.2a84.422,84.422,0,0,1,131.2-104.58c15.92,15.966,25.71,37.147,25.665,59.7C187.8,180.177,148.955,218.057,102.43,218.057Zm46.3-63.224c-2.516-1.281-15.005-7.411-17.338-8.235-2.333-.869-4.026-1.281-5.718,1.281s-6.542,8.235-8.052,9.973c-1.464,1.693-2.974,1.921-5.49.64-14.914-7.457-24.7-13.313-34.54-30.194-2.608-4.483,2.608-4.163,7.457-13.862A4.7,4.7,0,0,0,84.817,110c-.64-1.281-5.718-13.77-7.823-18.848-2.059-4.941-4.163-4.255-5.718-4.346-1.464-.091-3.157-.091-4.849-.091a9.4,9.4,0,0,0-6.771,3.157c-2.333,2.562-8.875,8.692-8.875,21.181s9.1,24.567,10.339,26.259C62.4,139,79.007,164.623,104.488,175.648c16.1,6.954,22.416,7.548,30.468,6.359,4.9-.732,15.005-6.13,17.11-12.077s2.1-11.025,1.464-12.077C152.935,156.709,151.242,156.068,148.726,154.833Z" transform="translate(0 -32)" fill="#fff"/>
    </g>
  </g>
</svg>
